<?xml version="1.0" standalone="no"?>
<!DOCTYPE svg PUBLIC "-//W3C//DTD SVG 20010904//EN"
 "http://www.w3.org/TR/2001/REC-SVG-20010904/DTD/svg10.dtd">
<svg version="1.0" xmlns="http://www.w3.org/2000/svg"
 width="746.000000pt" height="1280.000000pt" viewBox="0 0 746.000000 1280.000000"
 preserveAspectRatio="xMidYMid meet">
<g transform="translate(0.000000,1280.000000) scale(0.100000,-0.100000)"
fill="#000000" stroke="none">
<path d="M7405 12792 c-6 -5 -46 -24 -90 -43 -258 -110 -514 -313 -896 -714
-737 -773 -1676 -2016 -2911 -3850 -731 -1086 -1633 -2533 -1848 -2963 -203
-409 -259 -732 -161 -939 34 -70 105 -151 172 -194 27 -18 49 -36 49 -41 0 -5
-53 -109 -119 -231 -789 -1481 -1373 -2783 -1530 -3412 -24 -96 -71 -335 -71
-360 0 -3 9 -5 20 -5 10 0 23 -7 28 -16 7 -12 17 -15 35 -10 42 10 90 111 172
360 41 125 89 253 107 284 69 122 184 204 331 237 l72 16 154 387 c311 785
681 1620 1104 2493 l104 216 104 41 c448 175 921 218 1348 122 144 -32 278
-75 461 -149 96 -39 187 -71 202 -71 36 0 54 25 171 235 332 597 837 1628
1229 2510 771 1733 1323 3315 1597 4575 100 458 155 811 197 1260 9 91 18 189
21 218 5 50 4 52 -19 52 -13 0 -28 -4 -33 -8z"/>
</g>
</svg>
